<mxfile host="app.diagrams.net" agent="Mozilla/5.0 (Windows NT 10.0; Win64; x64) AppleWebKit/537.36 (KHTML, like Gecko) Chrome/126.0.0.0 Safari/537.36 Edg/126.0.0.0" version="24.7.5">
  <diagram name="Page-1" id="2KRLVa3J6v_cJWlkK8fW">
    <mxGraphModel dx="1042" dy="577" grid="1" gridSize="10" guides="1" tooltips="1" connect="1" arrows="1" fold="1" page="1" pageScale="1" pageWidth="850" pageHeight="1100" math="0" shadow="0">
      <root>
        <mxCell id="0" />
        <mxCell id="1" parent="0" />
        <mxCell id="xT_YbA5dNsoeyGNyo72m-1" value="Manager" style="shape=umlActor;verticalLabelPosition=bottom;verticalAlign=top;html=1;outlineConnect=0;" vertex="1" parent="1">
          <mxGeometry x="130" y="240" width="30" height="60" as="geometry" />
        </mxCell>
        <mxCell id="xT_YbA5dNsoeyGNyo72m-2" value="User" style="shape=umlActor;verticalLabelPosition=bottom;verticalAlign=top;html=1;outlineConnect=0;" vertex="1" parent="1">
          <mxGeometry x="690" y="240" width="30" height="60" as="geometry" />
        </mxCell>
        <mxCell id="xT_YbA5dNsoeyGNyo72m-8" style="edgeStyle=orthogonalEdgeStyle;rounded=0;orthogonalLoop=1;jettySize=auto;html=1;endArrow=none;endFill=0;" edge="1" parent="1" source="xT_YbA5dNsoeyGNyo72m-3" target="xT_YbA5dNsoeyGNyo72m-1">
          <mxGeometry relative="1" as="geometry" />
        </mxCell>
        <mxCell id="xT_YbA5dNsoeyGNyo72m-9" style="edgeStyle=orthogonalEdgeStyle;rounded=0;orthogonalLoop=1;jettySize=auto;html=1;endArrow=none;endFill=0;" edge="1" parent="1" source="xT_YbA5dNsoeyGNyo72m-3" target="xT_YbA5dNsoeyGNyo72m-2">
          <mxGeometry relative="1" as="geometry" />
        </mxCell>
        <mxCell id="xT_YbA5dNsoeyGNyo72m-3" value="Login" style="ellipse;whiteSpace=wrap;html=1;" vertex="1" parent="1">
          <mxGeometry x="402.5" y="245" width="75" height="50" as="geometry" />
        </mxCell>
        <mxCell id="xT_YbA5dNsoeyGNyo72m-4" value="Search Book" style="ellipse;whiteSpace=wrap;html=1;" vertex="1" parent="1">
          <mxGeometry x="500" y="320" width="90" height="60" as="geometry" />
        </mxCell>
        <mxCell id="xT_YbA5dNsoeyGNyo72m-12" value="" style="endArrow=none;html=1;rounded=0;" edge="1" parent="1" target="xT_YbA5dNsoeyGNyo72m-4">
          <mxGeometry width="50" height="50" relative="1" as="geometry">
            <mxPoint x="680" y="270" as="sourcePoint" />
            <mxPoint x="700" y="220" as="targetPoint" />
          </mxGeometry>
        </mxCell>
        <mxCell id="xT_YbA5dNsoeyGNyo72m-13" value="Create Order" style="ellipse;whiteSpace=wrap;html=1;" vertex="1" parent="1">
          <mxGeometry x="425" y="420" width="90" height="60" as="geometry" />
        </mxCell>
        <mxCell id="xT_YbA5dNsoeyGNyo72m-14" value="" style="endArrow=open;dashed=1;html=1;dashPattern=1 3;strokeWidth=2;rounded=0;entryX=0;entryY=1;entryDx=0;entryDy=0;exitX=0.5;exitY=0;exitDx=0;exitDy=0;endFill=0;startArrow=none;startFill=0;" edge="1" parent="1" source="xT_YbA5dNsoeyGNyo72m-13" target="xT_YbA5dNsoeyGNyo72m-4">
          <mxGeometry width="50" height="50" relative="1" as="geometry">
            <mxPoint x="400" y="320" as="sourcePoint" />
            <mxPoint x="450" y="270" as="targetPoint" />
          </mxGeometry>
        </mxCell>
        <mxCell id="xT_YbA5dNsoeyGNyo72m-17" value="&amp;lt;&amp;lt;extend&amp;gt;&amp;gt;" style="edgeLabel;html=1;align=center;verticalAlign=middle;resizable=0;points=[];" vertex="1" connectable="0" parent="xT_YbA5dNsoeyGNyo72m-14">
          <mxGeometry x="0.0878" y="-1" relative="1" as="geometry">
            <mxPoint as="offset" />
          </mxGeometry>
        </mxCell>
        <mxCell id="xT_YbA5dNsoeyGNyo72m-23" value="Create invoice" style="ellipse;whiteSpace=wrap;html=1;" vertex="1" parent="1">
          <mxGeometry x="540" y="490" width="90" height="60" as="geometry" />
        </mxCell>
        <mxCell id="xT_YbA5dNsoeyGNyo72m-24" value="" style="endArrow=open;dashed=1;html=1;dashPattern=1 3;strokeWidth=2;rounded=0;exitX=0;exitY=0;exitDx=0;exitDy=0;endFill=0;startArrow=none;startFill=0;entryX=1;entryY=0.5;entryDx=0;entryDy=0;" edge="1" parent="1" source="xT_YbA5dNsoeyGNyo72m-23" target="xT_YbA5dNsoeyGNyo72m-13">
          <mxGeometry width="50" height="50" relative="1" as="geometry">
            <mxPoint x="310" y="514.79" as="sourcePoint" />
            <mxPoint x="615" y="480" as="targetPoint" />
          </mxGeometry>
        </mxCell>
        <mxCell id="xT_YbA5dNsoeyGNyo72m-25" value="&amp;lt;&amp;lt;extend&amp;gt;&amp;gt;" style="edgeLabel;html=1;align=center;verticalAlign=middle;resizable=0;points=[];" vertex="1" connectable="0" parent="xT_YbA5dNsoeyGNyo72m-24">
          <mxGeometry x="0.0878" y="-1" relative="1" as="geometry">
            <mxPoint x="-1" y="3" as="offset" />
          </mxGeometry>
        </mxCell>
        <mxCell id="xT_YbA5dNsoeyGNyo72m-27" value="Update Account Info" style="ellipse;whiteSpace=wrap;html=1;" vertex="1" parent="1">
          <mxGeometry x="410" y="110" width="100" height="60" as="geometry" />
        </mxCell>
        <mxCell id="xT_YbA5dNsoeyGNyo72m-28" value="" style="endArrow=none;html=1;rounded=0;entryX=1;entryY=1;entryDx=0;entryDy=0;" edge="1" parent="1" target="xT_YbA5dNsoeyGNyo72m-27">
          <mxGeometry width="50" height="50" relative="1" as="geometry">
            <mxPoint x="680" y="270" as="sourcePoint" />
            <mxPoint x="608" y="330" as="targetPoint" />
          </mxGeometry>
        </mxCell>
        <mxCell id="xT_YbA5dNsoeyGNyo72m-29" value="" style="endArrow=none;html=1;rounded=0;entryX=1;entryY=1;entryDx=0;entryDy=0;" edge="1" parent="1" target="xT_YbA5dNsoeyGNyo72m-6">
          <mxGeometry width="50" height="50" relative="1" as="geometry">
            <mxPoint x="680" y="270" as="sourcePoint" />
            <mxPoint x="624" y="161" as="targetPoint" />
          </mxGeometry>
        </mxCell>
        <mxCell id="xT_YbA5dNsoeyGNyo72m-30" value="" style="endArrow=none;html=1;rounded=0;entryX=0;entryY=1;entryDx=0;entryDy=0;" edge="1" parent="1" target="xT_YbA5dNsoeyGNyo72m-6">
          <mxGeometry width="50" height="50" relative="1" as="geometry">
            <mxPoint x="180" y="270" as="sourcePoint" />
            <mxPoint x="482" y="181" as="targetPoint" />
          </mxGeometry>
        </mxCell>
        <mxCell id="xT_YbA5dNsoeyGNyo72m-31" value="" style="endArrow=none;html=1;rounded=0;entryX=0;entryY=0;entryDx=0;entryDy=0;" edge="1" parent="1" target="xT_YbA5dNsoeyGNyo72m-5">
          <mxGeometry width="50" height="50" relative="1" as="geometry">
            <mxPoint x="180" y="270" as="sourcePoint" />
            <mxPoint x="418" y="181" as="targetPoint" />
          </mxGeometry>
        </mxCell>
        <mxCell id="xT_YbA5dNsoeyGNyo72m-35" value="" style="endArrow=open;dashed=1;html=1;dashPattern=1 3;strokeWidth=2;rounded=0;entryX=0;entryY=1;entryDx=0;entryDy=0;exitX=0.5;exitY=0;exitDx=0;exitDy=0;endFill=0;startArrow=none;startFill=0;" edge="1" parent="1" source="xT_YbA5dNsoeyGNyo72m-5" target="xT_YbA5dNsoeyGNyo72m-3">
          <mxGeometry width="50" height="50" relative="1" as="geometry">
            <mxPoint x="315" y="460" as="sourcePoint" />
            <mxPoint x="315" y="410" as="targetPoint" />
          </mxGeometry>
        </mxCell>
        <mxCell id="xT_YbA5dNsoeyGNyo72m-36" value="&amp;lt;&amp;lt;include&amp;gt;&amp;gt;" style="edgeLabel;html=1;align=center;verticalAlign=middle;resizable=0;points=[];" vertex="1" connectable="0" parent="xT_YbA5dNsoeyGNyo72m-35">
          <mxGeometry x="0.0878" y="-1" relative="1" as="geometry">
            <mxPoint as="offset" />
          </mxGeometry>
        </mxCell>
        <mxCell id="xT_YbA5dNsoeyGNyo72m-37" value="" style="endArrow=open;dashed=1;html=1;dashPattern=1 3;strokeWidth=2;rounded=0;entryX=0;entryY=0;entryDx=0;entryDy=0;exitX=0.5;exitY=1;exitDx=0;exitDy=0;endFill=0;startArrow=none;startFill=0;" edge="1" parent="1" source="xT_YbA5dNsoeyGNyo72m-6" target="xT_YbA5dNsoeyGNyo72m-3">
          <mxGeometry width="50" height="50" relative="1" as="geometry">
            <mxPoint x="347" y="359" as="sourcePoint" />
            <mxPoint x="423" y="298" as="targetPoint" />
          </mxGeometry>
        </mxCell>
        <mxCell id="xT_YbA5dNsoeyGNyo72m-38" value="&amp;lt;&amp;lt;include&amp;gt;&amp;gt;" style="edgeLabel;html=1;align=center;verticalAlign=middle;resizable=0;points=[];" vertex="1" connectable="0" parent="xT_YbA5dNsoeyGNyo72m-37">
          <mxGeometry x="0.0878" y="-1" relative="1" as="geometry">
            <mxPoint as="offset" />
          </mxGeometry>
        </mxCell>
        <mxCell id="xT_YbA5dNsoeyGNyo72m-39" value="" style="endArrow=open;dashed=1;html=1;dashPattern=1 3;strokeWidth=2;rounded=0;entryX=0.5;entryY=0;entryDx=0;entryDy=0;exitX=0.5;exitY=1;exitDx=0;exitDy=0;endFill=0;startArrow=none;startFill=0;" edge="1" parent="1" source="xT_YbA5dNsoeyGNyo72m-27" target="xT_YbA5dNsoeyGNyo72m-3">
          <mxGeometry width="50" height="50" relative="1" as="geometry">
            <mxPoint x="357" y="369" as="sourcePoint" />
            <mxPoint x="433" y="308" as="targetPoint" />
          </mxGeometry>
        </mxCell>
        <mxCell id="xT_YbA5dNsoeyGNyo72m-40" value="&amp;lt;&amp;lt;include&amp;gt;&amp;gt;" style="edgeLabel;html=1;align=center;verticalAlign=middle;resizable=0;points=[];" vertex="1" connectable="0" parent="xT_YbA5dNsoeyGNyo72m-39">
          <mxGeometry x="0.0878" y="-1" relative="1" as="geometry">
            <mxPoint y="-21" as="offset" />
          </mxGeometry>
        </mxCell>
        <mxCell id="xT_YbA5dNsoeyGNyo72m-41" value="" style="endArrow=open;dashed=1;html=1;dashPattern=1 3;strokeWidth=2;rounded=0;entryX=1;entryY=1;entryDx=0;entryDy=0;exitX=0;exitY=0;exitDx=0;exitDy=0;endFill=0;startArrow=none;startFill=0;" edge="1" parent="1" source="xT_YbA5dNsoeyGNyo72m-4" target="xT_YbA5dNsoeyGNyo72m-3">
          <mxGeometry width="50" height="50" relative="1" as="geometry">
            <mxPoint x="367" y="379" as="sourcePoint" />
            <mxPoint x="443" y="318" as="targetPoint" />
          </mxGeometry>
        </mxCell>
        <mxCell id="xT_YbA5dNsoeyGNyo72m-42" value="&amp;lt;&amp;lt;include&amp;gt;&amp;gt;" style="edgeLabel;html=1;align=center;verticalAlign=middle;resizable=0;points=[];" vertex="1" connectable="0" parent="xT_YbA5dNsoeyGNyo72m-41">
          <mxGeometry x="0.0878" y="-1" relative="1" as="geometry">
            <mxPoint as="offset" />
          </mxGeometry>
        </mxCell>
        <mxCell id="xT_YbA5dNsoeyGNyo72m-43" value="Create Account" style="ellipse;whiteSpace=wrap;html=1;" vertex="1" parent="1">
          <mxGeometry x="550" y="110" width="95" height="60" as="geometry" />
        </mxCell>
        <mxCell id="xT_YbA5dNsoeyGNyo72m-44" value="" style="endArrow=none;html=1;rounded=0;entryX=0.5;entryY=1;entryDx=0;entryDy=0;" edge="1" parent="1" target="xT_YbA5dNsoeyGNyo72m-43">
          <mxGeometry width="50" height="50" relative="1" as="geometry">
            <mxPoint x="680" y="270" as="sourcePoint" />
            <mxPoint x="575" y="341" as="targetPoint" />
          </mxGeometry>
        </mxCell>
        <mxCell id="xT_YbA5dNsoeyGNyo72m-46" value="" style="endArrow=none;html=1;rounded=0;entryX=0.5;entryY=0;entryDx=0;entryDy=0;" edge="1" parent="1" target="xT_YbA5dNsoeyGNyo72m-45">
          <mxGeometry width="50" height="50" relative="1" as="geometry">
            <mxPoint x="180" y="270" as="sourcePoint" />
            <mxPoint x="303" y="339" as="targetPoint" />
          </mxGeometry>
        </mxCell>
        <mxCell id="xT_YbA5dNsoeyGNyo72m-48" value="" style="endArrow=open;dashed=1;html=1;dashPattern=1 3;strokeWidth=2;rounded=0;entryX=0;entryY=0.5;entryDx=0;entryDy=0;endFill=0;startArrow=none;startFill=0;" edge="1" parent="1" source="xT_YbA5dNsoeyGNyo72m-45" target="xT_YbA5dNsoeyGNyo72m-3">
          <mxGeometry width="50" height="50" relative="1" as="geometry">
            <mxPoint x="399" y="379" as="sourcePoint" />
            <mxPoint x="424" y="298" as="targetPoint" />
          </mxGeometry>
        </mxCell>
        <mxCell id="xT_YbA5dNsoeyGNyo72m-49" value="&amp;lt;&amp;lt;include&amp;gt;&amp;gt;" style="edgeLabel;html=1;align=center;verticalAlign=middle;resizable=0;points=[];" vertex="1" connectable="0" parent="xT_YbA5dNsoeyGNyo72m-48">
          <mxGeometry x="0.0878" y="-1" relative="1" as="geometry">
            <mxPoint x="-45" y="30" as="offset" />
          </mxGeometry>
        </mxCell>
        <mxCell id="xT_YbA5dNsoeyGNyo72m-50" value="" style="swimlane;startSize=0;" vertex="1" parent="1">
          <mxGeometry x="180" y="100" width="500" height="460" as="geometry" />
        </mxCell>
        <mxCell id="xT_YbA5dNsoeyGNyo72m-5" value="View user" style="ellipse;whiteSpace=wrap;html=1;" vertex="1" parent="xT_YbA5dNsoeyGNyo72m-50">
          <mxGeometry x="155" y="240" width="90" height="60" as="geometry" />
        </mxCell>
        <mxCell id="xT_YbA5dNsoeyGNyo72m-32" value="Delete user" style="ellipse;whiteSpace=wrap;html=1;" vertex="1" parent="xT_YbA5dNsoeyGNyo72m-50">
          <mxGeometry x="140" y="360" width="90" height="60" as="geometry" />
        </mxCell>
        <mxCell id="xT_YbA5dNsoeyGNyo72m-33" value="" style="endArrow=open;dashed=1;html=1;dashPattern=1 3;strokeWidth=2;rounded=0;entryX=0.5;entryY=1;entryDx=0;entryDy=0;exitX=0.5;exitY=0;exitDx=0;exitDy=0;endFill=0;startArrow=none;startFill=0;" edge="1" parent="xT_YbA5dNsoeyGNyo72m-50" source="xT_YbA5dNsoeyGNyo72m-32" target="xT_YbA5dNsoeyGNyo72m-5">
          <mxGeometry width="50" height="50" relative="1" as="geometry">
            <mxPoint x="215" y="350" as="sourcePoint" />
            <mxPoint x="215" y="300" as="targetPoint" />
          </mxGeometry>
        </mxCell>
        <mxCell id="xT_YbA5dNsoeyGNyo72m-34" value="&amp;lt;&amp;lt;extend&amp;gt;&amp;gt;" style="edgeLabel;html=1;align=center;verticalAlign=middle;resizable=0;points=[];" vertex="1" connectable="0" parent="xT_YbA5dNsoeyGNyo72m-33">
          <mxGeometry x="0.0878" y="-1" relative="1" as="geometry">
            <mxPoint as="offset" />
          </mxGeometry>
        </mxCell>
        <mxCell id="xT_YbA5dNsoeyGNyo72m-52" value="Add Book" style="ellipse;whiteSpace=wrap;html=1;" vertex="1" parent="xT_YbA5dNsoeyGNyo72m-50">
          <mxGeometry x="70" y="100" width="90" height="60" as="geometry" />
        </mxCell>
        <mxCell id="xT_YbA5dNsoeyGNyo72m-45" value="Update Book" style="ellipse;whiteSpace=wrap;html=1;" vertex="1" parent="xT_YbA5dNsoeyGNyo72m-50">
          <mxGeometry x="10" y="270" width="90" height="60" as="geometry" />
        </mxCell>
        <mxCell id="xT_YbA5dNsoeyGNyo72m-47" style="edgeStyle=orthogonalEdgeStyle;rounded=0;orthogonalLoop=1;jettySize=auto;html=1;exitX=0.5;exitY=1;exitDx=0;exitDy=0;" edge="1" parent="xT_YbA5dNsoeyGNyo72m-50" source="xT_YbA5dNsoeyGNyo72m-45" target="xT_YbA5dNsoeyGNyo72m-45">
          <mxGeometry relative="1" as="geometry" />
        </mxCell>
        <mxCell id="xT_YbA5dNsoeyGNyo72m-54" value="" style="endArrow=none;html=1;rounded=0;entryX=0.04;entryY=0.62;entryDx=0;entryDy=0;entryPerimeter=0;exitX=0.004;exitY=0.371;exitDx=0;exitDy=0;exitPerimeter=0;" edge="1" parent="xT_YbA5dNsoeyGNyo72m-50" source="xT_YbA5dNsoeyGNyo72m-50" target="xT_YbA5dNsoeyGNyo72m-52">
          <mxGeometry width="50" height="50" relative="1" as="geometry">
            <mxPoint x="10" y="180" as="sourcePoint" />
            <mxPoint x="85" y="250" as="targetPoint" />
          </mxGeometry>
        </mxCell>
        <mxCell id="xT_YbA5dNsoeyGNyo72m-6" value="View Order" style="ellipse;whiteSpace=wrap;html=1;" vertex="1" parent="xT_YbA5dNsoeyGNyo72m-50">
          <mxGeometry x="100" y="10" width="90" height="60" as="geometry" />
        </mxCell>
        <mxCell id="xT_YbA5dNsoeyGNyo72m-55" value="" style="endArrow=open;dashed=1;html=1;dashPattern=1 3;strokeWidth=2;rounded=0;entryX=0;entryY=0.5;entryDx=0;entryDy=0;endFill=0;startArrow=none;startFill=0;exitX=1;exitY=0.5;exitDx=0;exitDy=0;" edge="1" parent="1" source="xT_YbA5dNsoeyGNyo72m-52" target="xT_YbA5dNsoeyGNyo72m-3">
          <mxGeometry width="50" height="50" relative="1" as="geometry">
            <mxPoint x="305" y="358" as="sourcePoint" />
            <mxPoint x="413" y="280" as="targetPoint" />
          </mxGeometry>
        </mxCell>
        <mxCell id="xT_YbA5dNsoeyGNyo72m-56" value="&amp;lt;&amp;lt;include&amp;gt;&amp;gt;" style="edgeLabel;html=1;align=center;verticalAlign=middle;resizable=0;points=[];" vertex="1" connectable="0" parent="xT_YbA5dNsoeyGNyo72m-55">
          <mxGeometry x="0.0878" y="-1" relative="1" as="geometry">
            <mxPoint as="offset" />
          </mxGeometry>
        </mxCell>
      </root>
    </mxGraphModel>
  </diagram>
</mxfile>
